<?xml version="1.0" encoding="utf-8"?>
<!-- Generator: Adobe Illustrator 24.3.0, SVG Export Plug-In . SVG Version: 6.00 Build 0)  -->
<svg version="1.1" id="Layer_1" xmlns="http://www.w3.org/2000/svg" xmlns:xlink="http://www.w3.org/1999/xlink" x="0px" y="0px"
	 viewBox="0 0 29 29" style="enable-background:new 0 0 29 29;" xml:space="preserve">
<style type="text/css">
	.st0{opacity:0.31;}
	.st1{fill:none;}
	.st2{fill:none;stroke:#4F4F4F;}
	.st3{fill:#3899EC;}
</style>
<g id="Ellipse_44" transform="translate(1332 268)" class="st0">
	<circle class="st1" cx="-1317.5" cy="-253.5" r="14.5"/>
	<circle class="st2" cx="-1317.5" cy="-253.5" r="14"/>
</g>
<path id="add_1_" class="st3" d="M20.7,13.2h-4.6c-0.1,0-0.3-0.1-0.3-0.3V8.3c0-0.7-0.6-1.3-1.3-1.3s-1.3,0.6-1.3,1.3v4.6
	c0,0.1-0.1,0.3-0.3,0.3l0,0H8.3c-0.7,0-1.3,0.6-1.3,1.3c0,0.7,0.6,1.3,1.3,1.3h4.6c0.1,0,0.3,0.1,0.3,0.3v4.6c0,0.7,0.6,1.3,1.3,1.3
	s1.3-0.6,1.3-1.3v-4.6c0-0.1,0.1-0.3,0.3-0.3h4.6c0.7,0,1.3-0.6,1.3-1.3C22,13.8,21.4,13.2,20.7,13.2L20.7,13.2z"/>
</svg>
