<?xml version="1.0" encoding="utf-8"?>
<!-- Generator: Adobe Illustrator 24.3.0, SVG Export Plug-In . SVG Version: 6.00 Build 0)  -->
<svg version="1.1" id="Capa_1" xmlns="http://www.w3.org/2000/svg" xmlns:xlink="http://www.w3.org/1999/xlink" x="0px" y="0px"
	 viewBox="0 0 32 32" style="enable-background:new 0 0 32 32;" xml:space="preserve">
<style type="text/css">
	.st0{fill:#61646D;}
</style>
<path class="st0" d="M27.5,21v-4l0,0v-2H17v-4h0.5c1.6,0,2.9-1.3,2.9-2.9V5.2c0-1.6-1.3-2.9-2.9-2.9h-2.9c-1.6,0-2.9,1.3-2.9,2.9
	v2.9c0,1.6,1.3,2.9,2.9,2.9H15v4H4.5v2l0,0v4c-1.1,0-2,0.9-2,2v2c0,1.1,0.9,2,2,2h2c1.1,0,2-0.9,2-2v-2c0-1.1-0.9-2-2-2v-4H15v4
	c-1.1,0-2,0.9-2,2v2c0,1.1,0.9,2,2,2h2c1.1,0,2-0.9,2-2v-2c0-1.1-0.9-2-2-2v-4h8.5v4c-1.1,0-2,0.9-2,2v2c0,1.1,0.9,2,2,2h2
	c1.1,0,2-0.9,2-2v-2C29.5,21.9,28.6,21,27.5,21z M13.6,6.7c0-1.3,1.1-2.4,2.4-2.4s2.4,1.1,2.4,2.4S17.3,9.1,16,9.1S13.6,8,13.6,6.7z
	 M6.5,25h-2v-2h2V25z M17,25h-2v-2h2V25z M27.5,25h-2v-2h2V25z"/>
</svg>
